<svg xmlns="http://www.w3.org/2000/svg" viewBox="0 0 841.9 595.3"><g fill="#61DAFB"><path d="M666.3 296.5c0-32.5-40.7-63.3-103.1-82.4 14.4-63.6 8-114.2-20.2-130.4-6.5-3.8-14.1-5.6-22.4-5.6v22.3c4.6 0 8.3.9 11.4 2.6 13.6 7.8 19.5 37.5 14.9 75.7-1.1 9.4-2.9 19.3-5.1 29.4-19.6-4.8-41-8.5-63.5-10.9-13.5-18.5-27.5-35.3-41.6-50 32.6-30.3 63.2-46.9 84-46.9V78c-27.5 0-63.5 19.6-99.9 53.6-36.4-33.8-72.4-53.2-99.9-53.2v22.3c20.7 0 51.4 16.5 84 46.6-14 14.7-28 31.4-41.3 49.9-22.6 2.4-44 6.1-63.6 11-2.3-10-4-19.7-5.2-29-4.7-38.2 1.1-67.9 14.6-75.8 3-1.8 6.9-2.6 11.5-2.6V78.5c-8.4 0-16 1.8-22.6 5.6-28.1 16.2-34.4 66.7-19.9 130.1-62.2 19.2-102.7 49.9-102.7 82.3 0 32.5 40.7 63.3 103.1 82.4-14.4 63.6-8 114.2 20.2 130.4 6.5 3.8 14.1 5.6 22.4 5.6 27.5 0 63.5-19.6 99.9-53.6 36.4 33.8 72.4 53.2 99.9 53.2 8.4 0 16-1.8 22.6-5.6 28.1-16.2 34.4-66.7 19.9-130.1 62-19.1 102.5-49.9 102.5-82.3zm-130.2-66.7c-3.7 12.9-8.3 26.2-13.5 39.5-4.1-8-8.4-16-13.1-24-4.6-8-9.5-15.8-14.4-23.4 14.2 2.1 27.9 4.7 41 7.9zm-45.8 106.5c-7.8 13.5-15.8 26.3-24.1 38.2-14.9 1.3-30 2-45.2 2-15.1 0-30.2-.7-45-1.9-8.3-11.9-16.4-24.6-24.2-38-7.6-13.1-14.5-26.4-20.8-39.8 6.2-13.4 13.2-26.8 20.7-39.9 7.8-13.5 15.8-26.3 24.1-38.2 14.9-1.3 30-2 45.2-2 15.1 0 30.2.7 45 1.9 8.3 11.9 16.4 24.6 24.2 38 7.6 13.1 14.5 26.4 20.8 39.8-6.3 13.4-13.2 26.8-20.7 39.9zm32.3-13c5.4 13.4 10 26.8 13.8 39.8-13.1 3.2-26.9 5.9-41.2 8 4.9-7.7 9.8-15.6 14.4-23.7 4.6-8 8.9-16.1 13-24.1zM421.2 430c-9.3-9.6-18.6-20.3-27.8-32 9 .4 18.2.7 27.5.7 9.4 0 18.7-.2 27.8-.7-9 11.7-18.3 22.4-27.5 32zm-74.4-58.9c-14.2-2.1-27.9-4.7-41-7.9 3.7-12.9 8.3-26.2 13.5-39.5 4.1 8 8.4 16 13.1 24 4.7 8 9.5 15.8 14.4 23.4zM420.7 163c9.3 9.6 18.6 20.3 27.8 32-9-.4-18.2-.7-27.5-.7-9.4 0-18.7.2-27.8.7 9-11.7 18.3-22.4 27.5-32zm-74 58.9c-4.9 7.7-9.8 15.6-14.4 23.7-4.6 8-8.9 16.1-13 24.1-5.4-13.4-10-26.8-13.8-39.8 13.1-3.1 26.9-5.8 41.2-8zm130.2 66.7c3.7-12.9 8.3-26.2 13.5-39.5 4.1 8 8.4 16 13.1 24 4.6 8 9.5 15.8 14.4 23.4-14.2-2.1-27.9-4.7-41-7.9zm45.8-106.5c5.2 20.6 9 42 11.1 63.9-11.6 5-23.6 9.2-36 12.4-5.2-23.3-11.9-45.7-20-67.4 15.8-3.3 30.9-6.3 44.9-8.9zm67.3 22.7c-9.6 17.6-20.9 34.2-33.5 49.6-6.6-6.3-13.6-12.3-20.9-17.9 6.8-10.1 13-20.7 18.7-31.7 12.3 0 24.2 0 35.7 0zm-84.6-22.9c8.2 21.6 14.8 44 20 67.4 12.5-3.2 24.5-7.4 36-12.4-2-21.9-5.9-43.3-11.1-63.9-14 2.6-29.1 5.6-44.9 8.9zm-26.9 157.6c-7.8-18.6-14-38.3-18.7-58.8 15.8 3.3 30.9 6.3 44.9 8.9-5.2 20.6-9 42-11.1 63.9-5 5.3-10 10.3-15.1 15-5-5-10-10-15-15zm-22.2-126.3c15.1-5 30.4-10.3 45.8-15.6 10.3 19.3 19.1 39.5 26.2 60.5-12.9 2-26 3.5-39.3 4.6-10.4-16.9-21.4-33.4-32.7-49.5zm-59.3-51.5c-5.7 11-12 21.6-18.8 31.7-7.3 5.6-14.3 11.6-21 17.9-12.6-15.4-23.9-32-33.5-49.6 23.9 0 49.3 0 73.3 0zm-73.4 1.1c11.6-5 23.6-9.2 36-12.4 5.2 23.3 11.9 45.7 20 67.4-15.8 3.3-30.9 6.3-44.9 8.9-2.1-21.9-5.9-43.3-11.1-63.9zm-67.2-23.8c11.5 0 23.4 0 35.7 0 5.7 11 12 21.6 18.7 31.7-7.3 5.6-14.3 11.6-20.9 17.9-12.6-15.4-23.9-32-33.5-49.6zM266.3 277c-7.1-21-15.9-41.2-26.2-60.5 15.4 5.3 30.7 10.5 45.8 15.6-11.3 16.1-22.3 32.6-32.7 49.5-13.3-1.1-26.4-2.6-39.3-4.6zm-17.6-9.2c-5 20.5-11.2 40.2-18.7 58.8-5-5-10-10-15.1-15-5.1 4.7-10.1 9.7-15.1 15-2.1-21.9-5.9-43.3-11.1-63.9 14.1-2.6 29.2-5.6 44.9-8.9zm-46 150.3c5.2-23.3 11.9-45.7 20-67.4 12.4 5 24.5 9.2 36 12.4-5.2 20.6-9 42-11.1 63.9-15.8-3.3-30.8-6.3-44.9-8.9zm-22.6-88.7c-7.3-5.6-14.3-11.6-21-17.9-12.6 15.4-23.9 32-33.5 49.6 11.5 0 23.4 0 35.7 0 5.7-11 11.9-21.6 18.8-31.7zm136.3 119.5c10.4 16.9 21.4 33.4 32.7 49.5-15.4 5.3-30.7 10.5-45.8 15.6-7.1-21-15.9-41.2-26.2-60.5 12.9-1.1 26.4-2.6 39.3-4.6zm50-103.5c7.8 18.6 14 38.3 18.7 58.8-15.8-3.3-30.9-6.3-44.9-8.9 5.2-20.6 9-42 11.1-63.9 5-5.3 10-10.3 15.1-15 5 5 10 10 15 15zm22.2 126.3c-15.1 5-30.4 10.3-45.8 15.6-10.3-19.3-19.1-39.5-26.2-60.5 12.9-2 26-3.5 39.3-4.6 10.4 16.9 21.4 33.4 32.7 49.5zm59.2 51.5c5.7-11 12-21.6 18.8-31.7 7.3-5.6 14.3-11.6 21-17.9 12.6 15.4 23.9 32 33.5 49.6-23.9 0-49.3 0-73.3 0zm73.4-1.1c-11.6 5-23.6 9.2-36 12.4-5.2-23.3-11.9-45.7-20-67.4 15.8-3.3 30.9-6.3 44.9-8.9 2.1 21.9 5.9 43.3 11.1 63.9zm67.2 23.8c-11.5 0-23.4 0-35.7 0-5.7-11-12-21.6-18.7-31.7 7.3-5.6 14.3-11.6 20.9-17.9 12.6 15.4 23.9 32 33.5 49.6z"/></g></svg>
